<?xml version="1.0" encoding="utf-8"?>
<!-- Generator: Adobe Illustrator 25.0.1, SVG Export Plug-In . SVG Version: 6.00 Build 0)  -->
<svg version="1.1" xmlns="http://www.w3.org/2000/svg" xmlns:xlink="http://www.w3.org/1999/xlink" x="0px" y="0px"
	 viewBox="0 0 1000 1000" style="enable-background:new 0 0 1000 1000;" xml:space="preserve">
<style type="text/css">
	.st0{fill:#143D38;stroke:#000000;stroke-miterlimit:10;}
	.st1{fill:#FFFFFF;}
	.st2{fill:#603813;}
	.st3{fill:#BD3A00;stroke:#000000;stroke-miterlimit:10;}
	.st4{fill:#1A1A1A;}
	.st5{fill:#E6E6E6;stroke:#42210B;stroke-width:3;stroke-miterlimit:10;}
	.st6{fill:#F9BF43;stroke:#FFCEB8;stroke-miterlimit:10;}
</style>
<g id="Layer_2">
	<path class="st0" d="M643.1,480.1c-0.8-0.3-1.6-0.9-2.3-1.6c-2.5,1.4-5.5-0.5-6.9-3l-173.6,75c0.9,1.9,0.9,4-0.8,5.5
		c-1,0.9-2.2,1-3.3,0.8c-0.1,0.5-0.3,1-0.6,1.4c2.4,20.8,10.7,41.4,25.2,59c38.8,47.1,107,55.1,152.3,17.8
		c45.3-37.3,50.5-105.7,11.7-152.9C644.2,481.5,643.7,480.8,643.1,480.1z"/>
	<g>
		<path class="st1" d="M640,477.5c-12.6-10.1-55.6-1.6-101.6,21.1c-40,19.7-70,44.1-76.8,60.7c0.2-0.1,0.3-0.3,0.5-0.4l-0.5,0.4
			c-1.7,4.2-1.9,7.9-0.4,10.9c7.5,14.8,54.1,6.9,104.2-17.8s84.7-56.8,77.2-71.6c-0.6-1.1-1.3-2.1-2.3-2.9
			C640.2,477.7,640.1,477.6,640,477.5z"/>
		<path class="st2" d="M639.8,477.7c-1.6-1.3-3.6-2.2-5.7-2.8c-2-0.6-4.2-1-6.3-1.2c-4.3-0.4-8.6-0.2-12.8,0.2
			c-8.5,0.8-16.9,2.8-25.2,5.1c-4.1,1.2-8.2,2.5-12.3,3.9c-4,1.4-8.1,2.9-12,4.5c-8,3.2-15.8,6.7-23.5,10.4
			c-15.4,7.6-30.3,16.1-44.2,26c-6.9,5-13.6,10.3-19.8,16.2c-1.5,1.5-3.1,2.9-4.5,4.5c-0.7,0.8-1.5,1.5-2.1,2.3l-2,2.4
			c-2.6,3.3-5,6.8-6.6,10.5l-2.4-1.7l0.5-0.4l1.9,2.3l-0.5,0.4l0.4-0.6c-0.9,2.1-1.4,4.4-1.3,6.5c0.1,2.1,1.1,4,2.6,5.4
			c1.6,1.4,3.7,2.3,5.9,3c2.2,0.6,4.6,0.9,6.9,1.1c4.8,0.3,9.6-0.1,14.4-0.7c4.8-0.6,9.6-1.6,14.3-2.7c9.5-2.3,18.8-5.3,28-8.7
			c9.2-3.5,18.2-7.2,27-11.5c2.2-1.1,4.4-2.1,6.6-3.2c2.2-1.1,4.4-2.2,6.6-3.3c4.3-2.3,8.6-4.6,12.9-7c8.5-4.9,16.8-10.1,24.8-15.8
			c7.9-5.8,15.5-12,22.1-19.3c1.6-1.8,3.1-3.8,4.5-5.8c1.4-2,2.6-4.1,3.5-6.4c0.9-2.2,1.5-4.7,1.3-7.1c0-0.6-0.2-1.2-0.3-1.8
			c-0.1-0.6-0.4-1.1-0.6-1.7c-0.5-1.1-1.3-2-2.2-2.8l0,0L639.8,477.7z M640.1,477.4l0.4,0.3l0,0c0.9,0.8,1.8,1.8,2.4,2.9
			c0.2,0.6,0.5,1.2,0.7,1.8c0.1,0.6,0.3,1.2,0.3,1.9c0.2,2.5-0.4,5-1.3,7.3c-0.9,2.3-2.1,4.5-3.4,6.6c-1.3,2.1-2.8,4.1-4.4,6
			c-6.3,7.7-13.8,14.3-21.5,20.5c-15.6,12.3-32.6,22.6-50.5,31.2c-4.5,2.1-9,4.2-13.5,6.2c-4.6,2-9.2,3.8-13.8,5.5
			c-9.3,3.4-18.8,6.4-28.6,8.5c-4.9,1.1-9.8,2-14.7,2.6c-5,0.6-10,0.9-15.1,0.5c-2.5-0.2-5.1-0.5-7.6-1.3c-2.5-0.7-5-1.9-7.1-3.8
			c-0.5-0.4-1-1.1-1.4-1.6c-0.4-0.6-0.8-1.2-1.1-1.9c-0.6-1.3-1-2.7-1-4.1c-0.2-2.8,0.6-5.5,1.6-7.9l0.1-0.4l0.3-0.2l0.5-0.4
			l1.9,2.3l-0.5,0.4l-4.7,3.8l2.4-5.6c1.8-4.2,4.4-7.8,7.1-11.2l2.1-2.5c0.7-0.8,1.5-1.6,2.2-2.4c1.5-1.6,3.1-3.1,4.6-4.6
			c6.3-5.9,13.2-11.2,20.2-16.2c7.1-4.9,14.4-9.5,21.9-13.8c7.5-4.3,15.1-8.2,22.9-11.9c15.6-7.3,31.7-13.5,48.4-17.9
			c8.3-2.2,16.8-3.9,25.3-4.8c4.3-0.4,8.6-0.6,12.9-0.2c2.1,0.2,4.3,0.6,6.4,1.2C636.4,475.1,638.4,476,640.1,477.4z"/>
	</g>
</g>
<g id="Layer_1_copy">
	<path class="st3" d="M530.2,568.4c-0.4-0.8-0.6-1.7-0.6-2.7c-2.8-0.6-3.8-4-3.1-6.7l-180.3-60.2c-0.6,2-2,3.6-4.3,3.5
		c-1.3-0.1-2.3-0.7-3-1.6c-0.4,0.3-0.9,0.5-1.4,0.6c-12.2,16.9-19.9,37.5-20.9,60c-2.8,60.3,42.8,111.5,101.8,114.2
		c59,2.7,109.1-44,111.8-104.4C530.1,570.2,530.1,569.3,530.2,568.4z"/>
	<g>
		<path class="st1" d="M529.6,566.1c-2.5-18.5-40.2-44.3-89.7-60.2c-43.1-13.8-82-16-98.3-6.8c0.2,0,0.4,0,0.7,0l-0.7,0
			c-4.1,2.3-6.8,5.4-7.7,9.1c-4.6,18.6,35.5,47.8,89.5,65.1c54,17.3,101.5,16.3,106.1-2.3c0.3-1.4,0.4-2.8,0.3-4.3
			C529.6,566.5,529.6,566.3,529.6,566.1z"/>
		<path class="st2" d="M529.4,566.1c-0.3-2.2-1.1-4.2-2-6.2c-0.5-1-1.1-1.9-1.6-2.9c-0.6-0.9-1.2-1.8-1.9-2.7
			c-2.7-3.5-5.8-6.7-9.1-9.6c-3.3-2.9-6.8-5.6-10.5-8.1c-3.6-2.5-7.4-4.8-11.2-7c-7.6-4.4-15.6-8.3-23.7-11.8
			c-8.1-3.5-16.3-6.6-24.7-9.4c-16.7-5.5-33.9-9.8-51.3-12.1c-8.7-1.1-17.5-1.7-26.2-1.4c-2.2,0.1-4.4,0.2-6.5,0.5
			c-1.1,0.1-2.2,0.2-3.2,0.4l-3.2,0.5c-4.2,0.9-8.4,2-12.1,4l-0.7-2.8l0.6,0l-0.1,3l-0.7,0l0.8-0.2c-2.1,1.2-4,2.7-5.3,4.5
			c-0.7,0.9-1.2,1.9-1.5,3c-0.2,0.5-0.2,1.1-0.3,1.6c-0.1,0.5-0.1,1.1-0.1,1.7c0,2.3,0.7,4.6,1.7,6.7c1,2.2,2.3,4.3,3.9,6.2
			c3,3.9,6.7,7.4,10.6,10.6c3.9,3.2,8,6.2,12.3,8.9c8.5,5.5,17.6,10.3,26.8,14.6c4.6,2.1,9.3,4.1,14,6c4.7,1.9,9.5,3.7,14.3,5.3
			c4.8,1.6,9.7,3.2,14.6,4.7c4.9,1.4,9.8,2.8,14.8,4c9.9,2.4,19.9,4.4,30.1,5.5c5.1,0.6,10.2,0.9,15.3,1c5.1,0,10.2-0.2,15.2-1
			c5-0.9,10-2.2,14.3-4.9c2.1-1.4,4-3.2,5.1-5.4l0.4-0.8c0.1-0.3,0.2-0.6,0.3-0.9c0.2-0.6,0.4-1.2,0.5-1.8
			C529.5,568.7,529.5,567.4,529.4,566.1z M529.8,566.1c0.2,1.3,0.2,2.6,0,3.9c-0.1,0.7-0.3,1.3-0.5,1.9c-0.1,0.3-0.2,0.6-0.3,0.9
			l-0.4,0.9c-1.2,2.4-3.1,4.3-5.2,5.7c-2.2,1.5-4.5,2.6-7,3.5c-2.5,0.8-5,1.5-7.5,2c-5.1,1-10.3,1.5-15.4,1.6
			c-5.2,0.2-10.3,0-15.5-0.4c-20.6-1.5-41-6.1-60.5-12.7c-9.8-3.3-19.4-7.1-28.8-11.5c-9.4-4.4-18.5-9.3-27.2-15.1
			c-4.3-2.9-8.5-6-12.5-9.3c-4-3.4-7.8-7-11-11.3c-1.6-2.1-3-4.4-4.2-6.9c-1.1-2.5-1.9-5.2-1.9-8.1c0-0.7,0-1.4,0.2-2.2
			c0.1-0.7,0.2-1.4,0.5-2.1c0.5-1.4,1.1-2.7,2-3.9c1.7-2.3,4-4.1,6.3-5.4l0.4-0.2l0.4,0l0.7,0l-0.1,3l-0.7,0l-5.3-0.3l4.7-2.5
			c4.1-2.2,8.6-3.4,13-4.2l3.3-0.5c1.1-0.2,2.2-0.2,3.3-0.3c2.2-0.3,4.5-0.3,6.7-0.4c8.9-0.2,17.8,0.5,26.6,1.7
			c8.8,1.2,17.5,3,26.1,5.2c8.6,2.1,17.1,4.7,25.5,7.6c16.7,5.9,33,13.1,48.1,22.3c7.6,4.5,14.9,9.6,21.5,15.5
			c3.3,2.9,6.4,6.1,9.1,9.6c0.7,0.9,1.3,1.8,1.9,2.7c0.6,1,1.2,1.9,1.6,2.9C528.7,561.8,529.5,563.9,529.8,566.1z"/>
	</g>
</g>
<g id="Layer_4">
	<g>
		<path class="st4" d="M500,360.9c-3.7,1-7.2,3-9.7,5.7c-2.5,2.7-4.1,6.2-4.1,9.7c0,3.5,1.8,6.7,4.5,8.8c2.7,2.2,6.2,3.6,9.7,4.4
			l0.4,0.1l0.3,0.3c2.6,2,5,4.3,7,7.2c0.9,1.4,1.8,3,2.3,4.8c0.5,1.7,0.7,3.6,0.5,5.4c-0.3,3.7-2.1,6.9-4.2,9.5
			c-1.1,1.3-2.3,2.5-3.6,3.5c-0.7,0.5-1.3,1-2.1,1.5c-0.6,0.4-1.2,0.8-1.8,1.3c-1.2,0.9-2.3,1.9-3.4,2.9c-1,1.1-2,2.2-2.8,3.4
			c-1.6,2.4-2.7,5.2-2.8,8.1c-0.1,2.9,0.6,5.9,2.3,8.3c1.7,2.4,4.4,4.3,7.5,4.9c-3.2-0.1-6.3-1.6-8.5-4.1c-2.2-2.5-3.5-5.8-3.6-9.2
			c-0.1-3.4,0.9-6.8,2.6-9.7c0.9-1.5,1.9-2.8,3-4.1c1.1-1.2,2.3-2.4,3.6-3.4c0.6-0.5,1.3-1,2-1.5c0.5-0.4,1.1-0.9,1.7-1.3
			c1.1-1,2.1-2,3-3.2c1.8-2.2,3.1-4.8,3.3-7.5c0.2-2.6-0.6-5.3-2.2-7.7c-1.5-2.4-3.7-4.5-6-6.4l0.7,0.3c-3.9-1.1-7.8-2.7-11-5.5
			c-1.6-1.4-2.9-3.2-3.8-5.2c-0.9-2-1.3-4.2-1.2-6.3c0.3-4.3,2.6-8.1,5.7-10.7C492.3,362.8,496.1,361.3,500,360.9z"/>
	</g>
	<g>
		<path class="st4" d="M530.4,376.8c-0.9,0.9-1.5,2-1.9,3.1c-0.1,0.6-0.2,1.1-0.2,1.7c0,0.6,0.1,1.1,0.3,1.7
			c0.7,2.2,2.1,4.2,3.6,6.1c3.1,3.8,6.6,7.5,9.3,12c1.3,2.3,2.5,4.7,2.8,7.5c0.4,2.8-0.2,5.7-1.7,8c-1.4,2.3-3.4,4.1-5.5,5.6
			c-2.1,1.4-4.4,2.6-6.8,3.5c2-1.5,4.1-3,5.8-4.7c0.9-0.8,1.8-1.7,2.5-2.6c0.7-0.9,1.4-1.9,1.9-2.9c1-2.1,1.4-4.3,0.9-6.5
			c-0.4-2.2-1.4-4.4-2.6-6.4c-2.5-4.1-5.8-7.9-8.6-12.2c-1.4-2.1-2.7-4.5-3.2-7.2c-0.2-1.3,0-2.8,0.6-4
			C528.4,378.4,529.4,377.5,530.4,376.8z"/>
	</g>
	<g>
		<path class="st4" d="M469.6,414.5c-3.7,3.7-7.3,7.4-9.7,11.8c-0.6,1.1-1.1,2.2-1.4,3.3c-0.4,1.1-0.6,2.3-0.7,3.5
			c-0.2,2.3,0.3,4.7,1.4,6.8c1,2.2,2.5,4.2,4.1,6.1c1.6,1.9,3.4,3.7,5.2,5.6c0.9,0.9,1.8,1.9,2.7,2.9c0.9,1,1.7,2.1,2.4,3.3
			c0.3,0.6,0.6,1.4,0.5,2.2c0,0.8-0.4,1.6-0.9,2.1c-1.1,1-2.4,1.4-3.6,1.7c0.6-0.3,1.1-0.6,1.7-1c0.5-0.4,1-0.8,1.3-1.3
			c0.7-1,0.4-2-0.3-3c-0.7-1-1.6-1.8-2.5-2.7c-0.9-0.8-1.9-1.7-2.9-2.5c-3.9-3.4-8-7-10.4-12.1c-1.2-2.5-1.8-5.5-1.5-8.3
			c0.3-2.9,1.4-5.5,2.9-7.8C460.9,420.5,465.1,417.2,469.6,414.5z"/>
	</g>
	<ellipse class="st5" cx="492" cy="726.1" rx="209.4" ry="40.6"/>
	<polygon class="st6" points="333.7,753.5 330.9,730.5 310.4,719.8 331.4,710 335.3,687.2 351,704.2 373.9,700.8 362.6,721 
		372.9,741.8 350.2,737.3 	"/>
	<polygon class="st6" points="464.3,713.9 473.8,696.3 464.8,678.4 484.4,682.1 498.6,668 501.2,687.8 519.1,696.9 501,705.5 
		497.8,725.3 484.1,710.8 	"/>
	<polygon class="st6" points="582.1,789.5 591.5,765.5 577.6,743.7 602.8,745.7 618.5,725.5 624.6,750.7 648.2,759.9 626.8,773.6 
		625.7,799.5 606.4,782.7 	"/>
	<polygon class="st6" points="676.6,743.6 673.6,737.6 666.9,736.6 671.8,731.9 670.6,725.3 676.6,728.4 682.6,725.3 681.4,731.9 
		686.2,736.6 679.6,737.6 	"/>
	<polygon class="st6" points="421.8,719.9 415,712.5 405.1,714 409.9,705.2 405.5,696.2 415.3,698.1 422.5,691.1 423.7,701.1 
		432.6,705.7 423.5,710 	"/>
	<polygon class="st6" points="575.1,710.3 567,702.5 556,704.8 560.9,694.6 555.3,684.8 566.4,686.4 574,678 576,689.1 586.3,693.7 
		576.4,699.1 	"/>
	<polygon class="st6" points="354.2,777.4 391.3,754.6 393.5,711.2 426.6,739.4 468.6,728.1 452,768.3 475.7,804.7 432.4,801.4 
		405,835.2 394.8,793 	"/>
	<polygon class="st6" points="668.6,706.7 652.3,706.1 642.6,719.3 638,703.6 622.5,698.5 636,689.3 636.1,672.9 649,682.9 
		664.6,678 659.1,693.4 	"/>
	<polygon class="st6" points="537.1,754 532.4,744.5 522,743 529.5,735.6 527.8,725.2 537.1,730.1 546.5,725.2 544.7,735.6 
		552.3,743 541.8,744.5 	"/>
</g>
</svg>
